<?xml version="1.0" encoding="utf-8"?>
<!-- Generator: Adobe Illustrator 21.1.0, SVG Export Plug-In . SVG Version: 6.00 Build 0)  -->
<svg version="1.1" id="Слой_1" xmlns="http://www.w3.org/2000/svg" xmlns:xlink="http://www.w3.org/1999/xlink" x="0px" y="0px"
	 viewBox="0 0 158.75 48.94" enable-background="new 0 0 158.75 48.94" xml:space="preserve">
<path fill="#28D223" d="M158.75,38.75h-8.35l-4.52-7.3l-4.47,7.3H133l8.67-13.24L133.58,13h8.41l3.89,6.57l3.89-6.57h8.41
	l-8.09,12.5L158.75,38.75z M125.85,9.77c-2.66,0-4.85-2.19-4.85-4.86c0-2.78,2.19-4.91,4.85-4.91c2.78,0,4.92,2.13,4.92,4.91
	C130.77,7.58,128.52,9.77,125.85,9.77z M110.46,38.75H103V13h15.79v6.88h-8.33V38.75z M78.83,48.94l4.2-10.19L73,13h8.3l5.78,15.92
	L93.07,13h7.99L86.71,48.94H78.83z M62.65,36.49c-2,1.63-4.36,2.47-7.14,2.47c-3.73,0-6.94-1.26-9.57-3.83
	C43.31,32.54,42,29.34,42,25.5s1.31-7.04,3.94-9.62c2.63-2.57,5.83-3.89,9.57-3.89c3.1,0,7.14,0.63,7.14,0.63h7.51v25.75h-7.51
	V36.49z M56.36,19c-1.84,0-3.36,0.63-4.57,1.89C50.58,22.15,50,23.68,50,25.41c0,1.73,0.63,3.31,1.84,4.62c1.21,1.31,2.73,2,4.52,2
	c1.94,0,3.52-0.63,4.73-1.94c1.21-1.31,1.84-2.89,1.84-4.68C62.93,21.84,60.35,19,56.36,19z M31.2,7.88H24V1h14.66v36.78H31.2V7.88z
	 M23.22,35.22c-2.47,2.47-5.52,3.73-9.14,3.73c-2.73,0-4.94-0.74-6.62-2.21v11.82H0V12.63h7.36c0,0,3.94-0.63,6.73-0.63
	c3.62,0,6.67,1.26,9.14,3.73c2.47,2.47,3.73,5.73,3.73,9.77C26.95,29.5,25.69,32.76,23.22,35.22z M17.25,20.89
	c-1.1-1.26-2.52-1.89-4.26-1.89s-3.15,0.63-4.31,1.89C7.58,22.15,7,23.78,7,25.73s0.58,3.57,1.68,4.83
	c1.16,1.26,2.57,1.89,4.31,1.89s3.15-0.63,4.26-1.89c1.15-1.26,1.73-2.89,1.73-4.83S18.4,22.15,17.25,20.89z M129.51,38.75H122V13
	h7.51V38.75z"/>
</svg>
